# xmcd
#
# Track frame offsets:
#	150
#	14720
#	32607
#	52990
#	75187
#	94220
#	127600
#	144525
#	161937
#	179077
#	192172
#	204427
#	216432
#	234030
#	245600
#
# Disc length: 3457
#
# Revision: 1
# Processed by: cddbd v1.5.1PL0 Copyright (c) Steve Scherf et al.
# Submitted via: ExactAudioCopy v0.95a4
# Normalized: r0:TDELIM( - )
#
DISCID=c80d7f0f
DTITLE=Various Artist - Rhythm and Soul n°28
DYEAR=2000
DGENRE=Soul
TTITLE0=De La Soul - The Magic Number
TTITLE1=Society Of Soul - Brainchild
TTITLE2=The Jacksons - Heartbreak Hotel
TTITLE3=Maze - Too Many Games
TTITLE4=Kool and The Gang - Tonight
TTITLE5=James Brown - Cold Sweat
TTITLE6=Ester Philips - What A Diff'rence A Day Makes
TTITLE7=Diana Ross - My Old Piano
TTITLE8=KC and The Sunshine Band - Please Don't Go
TTITLE9=Jimmy Ruffin - What Becomes Of The Brokenhearted
TTITLE10=Four Tops - Walk Away Renee
TTITLE11=The Supremes - Come See About Me
TTITLE12=Marvin Gaye - Trouble Man
TTITLE13=Brook Benton - Hotel Happiness
TTITLE14=Harry Belafonte - Banana Boat (Day-O)
EXTD=
EXTT0=
EXTT1=
EXTT2=
EXTT3=
EXTT4=
EXTT5=
EXTT6=
EXTT7=
EXTT8=
EXTT9=
EXTT10=
EXTT11=
EXTT12=
EXTT13=
EXTT14=
PLAYORDER=
